<?xml version="1.0" encoding="UTF-8"?>
<svg id="Ebene_1" xmlns="http://www.w3.org/2000/svg" xmlns:xlink="http://www.w3.org/1999/xlink" version="1.1" viewBox="0 0 268 70">
  <!-- Generator: Adobe Illustrator 29.2.1, SVG Export Plug-In . SVG Version: 2.1.0 Build 116)  -->
  <defs>
    <style>
      .st0 {
        fill: url(#Unbenannter_Verlauf);
      }

      .st1 {
        fill: #f4f4f4;
      }
    </style>
    <linearGradient id="Unbenannter_Verlauf" data-name="Unbenannter Verlauf" x1="-49.6" y1="37.9" x2="-18.1" y2="113.9" gradientTransform="translate(17.3 119.6) rotate(30) scale(1 -1)" gradientUnits="userSpaceOnUse">
      <stop offset="0" stop-color="#2afcff"/>
      <stop offset=".2" stop-color="#1adcea"/>
      <stop offset=".4" stop-color="#00a4c6"/>
      <stop offset=".8" stop-color="#053f7e"/>
      <stop offset=".9" stop-color="#062c70"/>
    </linearGradient>
  </defs>
  <g id="Ebene_11">
    <g>
      <path class="st1" d="M98.6,25.4c5.1,0,9.4,1.9,12.9,5.7s5.3,8.8,5.4,14.8c0,6-1.6,11-5,14.9-3.4,3.9-7.7,5.9-12.9,5.9s-9.5-2-12.6-6v5.3h-10.2l-.6-55.3h1.7c4.8,0,8.7,3.7,8.7,8.5v12.8c3.2-4.3,7.3-6.5,12.6-6.6h0ZM96.5,57c2.9,0,5.3-1.1,7.1-3.1,1.9-2,2.8-4.7,2.8-7.9s-1-5.8-2.9-7.8-4.3-3-7.2-2.9c-2.9,0-5.3,1.1-7.2,3.1-1.9,2-2.8,4.7-2.8,7.9s1,5.8,3,7.8c1.9,2,4.4,3,7.3,2.9h-.1Z"/>
      <path class="st1" d="M123.3,10h1.3c5,0,9,3.9,9.1,8.9l.5,47.5h-10.4l-.5-56.3h0Z"/>
      <path class="st1" d="M177.3,25.5h4.1c.1,0,.2,0,.2.1l.4,39.4h-10.3v-5.2c-3,4.2-7.1,6.3-12.3,6.3s-9.6-1.8-13-5.6c-3.5-3.8-5.2-8.8-5.3-14.8,0-6,1.6-11,5-14.9s7.6-5.9,12.8-5.9,9.5,2,12.6,6.3v-.6c0-2.7,2.3-5,5.9-5h0ZM161.5,56.3c2.9,0,5.3-1.1,7.2-3.1s2.8-4.7,2.8-7.9-1-5.8-3-7.8c-1.9-2-4.4-3-7.3-2.9s-5.3,1.1-7.2,3.1c-1.8,2-2.8,4.7-2.7,7.9,0,3.2,1,5.8,2.9,7.8s4.3,3,7.2,2.9h.1Z"/>
      <path class="st1" d="M202.1,55.1l20.5-.2h.1v9.6c.1,0-33.8.4-33.8.4v-6.6c0-2,.7-3.9,2.1-5.4l17.6-18.1h-10.3c-4.7.2-8.6-3.6-8.7-8.4v-1.1l32.2-.4v6.1c0,2.3-.8,4.5-2.4,6.1l-17.4,17.8h0v.2h0Z"/>
      <path class="st1" d="M246.5,23.8c6.5,0,11.6,2.1,15.4,6.5,3.8,4.4,5.5,9.9,5,16.6l-30.4.3c.4,3.1,1.5,5.4,3.4,7s4.2,2.4,7,2.4,3.8-.5,5.4-1.4c.7-.4,1.3-.8,1.8-1.3,2.5-2.7,4.5-2.4,10.1-2.4h2.2c-1.3,4.4-3.8,7.8-7.2,10.1-3.5,2.3-7.5,3.5-12,3.5s-11.2-1.8-15.1-5.7c-3.9-3.8-5.9-8.7-6-14.7,0-6,1.8-10.9,5.7-14.9,3.8-4,8.8-6,14.8-6.1h0ZM246.6,32.3c-2.4,0-4.5.7-6.1,2s-2.8,3.1-3.4,5.3l18.9-.2c-.6-2.2-1.7-4-3.4-5.3-1.6-1.3-3.7-1.9-6.1-1.9h.1Z"/>
      <path class="st0" d="M24.4.7l-10.3,17.9L3.7,36.5h0c-5.7,10-2.3,22.6,7.6,28.2l10.3-17.9,10.3-17.9h0c5.7-10,2.3-22.6-7.6-28.2h0ZM42.8,59.4c-5.5,9.5-17.6,12.8-27.1,7.3l19.9-34.4c9.5,5.5,12.8,17.6,7.3,27.1h0Z"/>
    </g>
  </g>
</svg>