<?xml version="1.0" encoding="UTF-8"?>
<svg xmlns="http://www.w3.org/2000/svg" xmlns:xlink="http://www.w3.org/1999/xlink" version="1.1" viewBox="0 0 268 70">
  <defs>
    <style>
      .cls-1 {
        fill: url(#Unbenannter_Verlauf_35);
      }

      .cls-2 {
        fill: #062c70;
      }
    </style>
    <linearGradient id="Unbenannter_Verlauf_35" data-name="Unbenannter Verlauf 35" x1="-68.6" y1="-114.5" x2="-37.1" y2="-190.5" gradientTransform="translate(-4.6 195.4) rotate(30)" gradientUnits="userSpaceOnUse">
      <stop offset="0" stop-color="#2afcff"/>
      <stop offset=".2" stop-color="#1adcea"/>
      <stop offset=".4" stop-color="#00a4c6"/>
      <stop offset=".7" stop-color="#053f7e"/>
      <stop offset=".7" stop-color="#062c70"/>
    </linearGradient>
  </defs>
  <!-- Generator: Adobe Illustrator 28.7.1, SVG Export Plug-In . SVG Version: 1.2.0 Build 142)  -->
  <g>
    <g id="Ebene_1">
      <g>
        <path class="cls-2" d="M98.5,25.5c5.1,0,9.5,1.8,13,5.6,3.5,3.8,5.3,8.8,5.4,14.8,0,6-1.6,11-5,14.9-3.4,3.9-7.7,5.9-12.9,5.9-5.3,0-9.5-2-12.6-6v5.3c0,0-10.2.1-10.2.1l-.6-55.4h1.7c4.8,0,8.7,3.7,8.7,8.5v12.8c3.2-4.3,7.3-6.5,12.6-6.6ZM96.5,57c2.9,0,5.3-1.1,7.1-3.1,1.9-2,2.8-4.7,2.8-7.9,0-3.2-1-5.8-2.9-7.8-1.9-2-4.3-3-7.2-2.9-2.9,0-5.3,1.1-7.2,3.1-1.9,2-2.8,4.7-2.8,7.9,0,3.2,1,5.8,3,7.8,1.9,2,4.4,3,7.3,2.9Z"/>
        <path class="cls-2" d="M123.3,10h1.3c5,0,9,3.9,9.1,8.9l.5,47.5h-10.4s-.5-56.3-.5-56.3Z"/>
        <path class="cls-2" d="M177.3,25.5h4.1c.1,0,.2,0,.2.1l.4,39.4h-10.3c0,.1,0-5.2,0-5.2-3,4.2-7.1,6.3-12.3,6.3-5.2,0-9.6-1.8-13-5.6-3.5-3.8-5.2-8.8-5.3-14.8,0-6,1.6-11,5-14.9,3.4-3.9,7.6-5.9,12.8-5.9,5.3,0,9.5,2,12.6,6.3v-.6c0-2.7,2.3-5,5.9-5ZM161.5,56.3c2.9,0,5.3-1.1,7.2-3.1,1.9-2,2.8-4.7,2.8-7.9s-1-5.8-3-7.8c-1.9-2-4.4-3-7.3-2.9s-5.3,1.1-7.2,3.1c-1.8,2-2.8,4.7-2.7,7.9,0,3.2,1,5.8,2.9,7.8,1.9,2,4.3,3,7.2,2.9Z"/>
        <path class="cls-2" d="M202.1,55.1l20.5-.2c0,0,.1,0,.1.1v9.6c.1,0-33.8.4-33.8.4v-6.6c0-2,.7-3.9,2.1-5.4l17.6-18.1h-10.3c-4.7.2-8.6-3.6-8.7-8.4v-1.1s32.2-.4,32.2-.4v6.1c0,2.3-.8,4.5-2.4,6.1l-17.4,17.8Z"/>
        <path class="cls-2" d="M246.5,23.8c6.5,0,11.6,2.1,15.4,6.5,3.8,4.4,5.5,9.9,5,16.6l-30.4.3c.4,3.1,1.5,5.4,3.4,7,1.9,1.6,4.2,2.4,7,2.4,2,0,3.8-.5,5.4-1.4.7-.4,1.3-.8,1.8-1.3,2.5-2.7,4.5-2.4,10.1-2.4h2.2c-1.3,4.4-3.8,7.8-7.2,10.1-3.5,2.3-7.5,3.5-12,3.5-6.1,0-11.2-1.8-15.1-5.7-3.9-3.8-5.9-8.7-6-14.7,0-6,1.8-10.9,5.7-14.9,3.8-4,8.8-6,14.8-6.1ZM246.6,32.3c-2.4,0-4.5.7-6.1,2-1.6,1.3-2.8,3.1-3.4,5.3l18.9-.2c-.6-2.2-1.7-4-3.4-5.3-1.6-1.3-3.7-1.9-6.1-1.9Z"/>
        <path class="cls-1" d="M24.4.7l-10.3,17.9L3.7,36.5h0s0,0,0,.1c-5.7,9.9-2.3,22.5,7.6,28.1l10.3-17.9,10.3-17.9h0s0,0,0-.1c5.7-9.9,2.3-22.5-7.6-28.1ZM42.8,59.4c-5.5,9.5-17.6,12.8-27.1,7.3l19.9-34.4c9.5,5.5,12.8,17.6,7.3,27.1Z"/>
      </g>
    </g>
  </g>
</svg>
